<mxfile host="app.diagrams.net" agent="Mozilla/5.0 (Windows NT 10.0; Win64; x64) AppleWebKit/537.36 (KHTML, like Gecko) Chrome/128.0.0.0 Safari/537.36" version="24.7.14">
  <diagram name="Page-1" id="74b105a0-9070-1c63-61bc-23e55f88626e">
    <mxGraphModel dx="1257" dy="620" grid="1" gridSize="10" guides="1" tooltips="1" connect="1" arrows="1" fold="1" page="1" pageScale="1.5" pageWidth="1169" pageHeight="826" background="none" math="0" shadow="0">
      <root>
        <mxCell id="0" style=";html=1;" />
        <mxCell id="1" style=";html=1;" parent="0" />
        <mxCell id="c78tgHl7_rHYY4bzLZ50-1" value="" style="rounded=1;whiteSpace=wrap;html=1;" vertex="1" parent="1">
          <mxGeometry x="240" y="120" width="800" height="400" as="geometry" />
        </mxCell>
        <mxCell id="RzKuKoNoO3_lkWC_T4-T-1" value="Order Service" style="rounded=1;whiteSpace=wrap;html=1;fillColor=#dae8fc;strokeColor=#6c8ebf;" parent="1" vertex="1">
          <mxGeometry x="280" y="310" width="250" height="150" as="geometry" />
        </mxCell>
        <mxCell id="o-6bHqJOkxANsoTmX1Vg-1" value="Inventory Service&lt;div&gt;&lt;br&gt;&lt;/div&gt;&lt;div&gt;8082&lt;/div&gt;" style="rounded=1;whiteSpace=wrap;html=1;fillColor=#dae8fc;strokeColor=#6c8ebf;" parent="1" vertex="1">
          <mxGeometry x="730" y="310" width="250" height="150" as="geometry" />
        </mxCell>
        <mxCell id="o-6bHqJOkxANsoTmX1Vg-2" value="Inter Process Communication&lt;div&gt;Synchronous Communication&lt;/div&gt;" style="text;html=1;align=left;verticalAlign=middle;resizable=0;points=[];autosize=1;strokeColor=none;fillColor=none;fontSize=25;fontStyle=1" parent="1" vertex="1">
          <mxGeometry x="280" y="145" width="350" height="70" as="geometry" />
        </mxCell>
        <mxCell id="o-6bHqJOkxANsoTmX1Vg-3" value="" style="endArrow=classic;html=1;rounded=0;entryX=0;entryY=0.25;entryDx=0;entryDy=0;exitX=1;exitY=0.25;exitDx=0;exitDy=0;" parent="1" source="RzKuKoNoO3_lkWC_T4-T-1" target="o-6bHqJOkxANsoTmX1Vg-1" edge="1">
          <mxGeometry width="50" height="50" relative="1" as="geometry">
            <mxPoint x="540" y="340" as="sourcePoint" />
            <mxPoint x="590" y="290" as="targetPoint" />
          </mxGeometry>
        </mxCell>
        <mxCell id="o-6bHqJOkxANsoTmX1Vg-4" value="HTTP Request" style="text;html=1;align=center;verticalAlign=middle;resizable=0;points=[];autosize=1;strokeColor=none;fillColor=none;fontStyle=1" parent="1" vertex="1">
          <mxGeometry x="590" y="310" width="100" height="30" as="geometry" />
        </mxCell>
        <mxCell id="o-6bHqJOkxANsoTmX1Vg-5" value="" style="endArrow=classic;html=1;rounded=0;entryX=1;entryY=0.75;entryDx=0;entryDy=0;exitX=0;exitY=0.75;exitDx=0;exitDy=0;" parent="1" source="o-6bHqJOkxANsoTmX1Vg-1" target="RzKuKoNoO3_lkWC_T4-T-1" edge="1">
          <mxGeometry width="50" height="50" relative="1" as="geometry">
            <mxPoint x="540" y="358" as="sourcePoint" />
            <mxPoint x="740" y="358" as="targetPoint" />
          </mxGeometry>
        </mxCell>
        <mxCell id="o-6bHqJOkxANsoTmX1Vg-6" value="Response" style="text;html=1;align=center;verticalAlign=middle;resizable=0;points=[];autosize=1;strokeColor=none;fillColor=none;fontStyle=1" parent="1" vertex="1">
          <mxGeometry x="600" y="430" width="80" height="30" as="geometry" />
        </mxCell>
        <mxCell id="o-6bHqJOkxANsoTmX1Vg-7" value="http://localhost:8082/api/inventory" style="text;html=1;align=center;verticalAlign=middle;resizable=0;points=[];autosize=1;strokeColor=none;fillColor=none;" parent="1" vertex="1">
          <mxGeometry x="530" y="370" width="200" height="30" as="geometry" />
        </mxCell>
        <mxCell id="o-6bHqJOkxANsoTmX1Vg-8" value="&quot;Spring Cloud Open Feign&quot;" style="text;html=1;align=left;verticalAlign=middle;resizable=0;points=[];autosize=1;strokeColor=none;fillColor=none;fontStyle=1" parent="1" vertex="1">
          <mxGeometry x="280" y="215" width="170" height="30" as="geometry" />
        </mxCell>
      </root>
    </mxGraphModel>
  </diagram>
</mxfile>
